<?xml version="1.0" encoding="UTF-8" standalone="no"?>
<!-- Created with Inkscape (http://www.inkscape.org/) -->

<svg
   xmlns:dc="http://purl.org/dc/elements/1.1/"
   xmlns:cc="http://creativecommons.org/ns#"
   xmlns:rdf="http://www.w3.org/1999/02/22-rdf-syntax-ns#"
   xmlns:svg="http://www.w3.org/2000/svg"
   xmlns="http://www.w3.org/2000/svg"
   xmlns:sodipodi="http://sodipodi.sourceforge.net/DTD/sodipodi-0.dtd"
   xmlns:inkscape="http://www.inkscape.org/namespaces/inkscape"
   width="1024"
   height="1024"
   id="svg2"
   version="1.1"
   inkscape:version="0.48.4 r9939"
   inkscape:export-filename="C:\Users\Paddel\Desktop\Sourcen\Paddel\data\pdl_autorun.png"
   inkscape:export-xdpi="90"
   inkscape:export-ydpi="90"
   sodipodi:docname="pdl_autorun.svg">
  <defs
     id="defs4" />
  <sodipodi:namedview
     id="base"
     pagecolor="#ffffff"
     bordercolor="#666666"
     borderopacity="1.0"
     inkscape:pageopacity="0.0"
     inkscape:pageshadow="2"
     inkscape:zoom="2"
     inkscape:cx="349.1618"
     inkscape:cy="907.54888"
     inkscape:document-units="px"
     inkscape:current-layer="layer1"
     showgrid="true"
     inkscape:snap-bbox="true"
     inkscape:snap-global="false"
     inkscape:window-width="1920"
     inkscape:window-height="1018"
     inkscape:window-x="-8"
     inkscape:window-y="-8"
     inkscape:window-maximized="1">
    <inkscape:grid
       type="xygrid"
       id="grid2985"
       empspacing="5"
       visible="true"
       enabled="true"
       snapvisiblegridlinesonly="true"
       spacingx="64px"
       spacingy="64px" />
  </sodipodi:namedview>
  <metadata
     id="metadata7">
    <rdf:RDF>
      <cc:Work
         rdf:about="">
        <dc:format>image/svg+xml</dc:format>
        <dc:type
           rdf:resource="http://purl.org/dc/dcmitype/StillImage" />
        <dc:title></dc:title>
      </cc:Work>
    </rdf:RDF>
  </metadata>
  <g
     inkscape:label="Ebene 1"
     inkscape:groupmode="layer"
     id="layer1"
     transform="translate(0,-28.362168)">
    <path
       style="opacity:0.43771044999999997;fill:#cb0000;fill-opacity:0.71428573;stroke:none"
       d="M 64 0 L 64 64 L 128 64 L 128 0 L 64 0 z M 113.28125 1.15625 C 113.63665 1.1784681 114.01186 1.3035475 114.40625 1.53125 C 114.65074 1.664407 114.90035 1.7838559 115.15625 1.90625 C 115.62274 2.1728878 116.04881 2.4772158 116.4375 2.84375 C 118.05968 4.3324658 119.25387 5.4726447 120.03125 6.25 C 121.67555 7.8943251 123.21445 9.9871648 124.625 12.53125 C 125.05829 13.320044 124.94566 14.18973 124.3125 15.15625 C 123.91239 15.778363 123.45932 16.150069 122.9375 16.25 C 122.23758 16.394554 121.52382 16.1716 120.8125 15.59375 C 120.61262 15.438145 120.32277 15.119338 119.90625 14.625 C 119.48972 14.130679 119.18881 13.791688 119 13.625 C 118.65557 13.414068 118.32 13.461261 118.03125 13.75 C 117.75357 14.027692 117.63053 14.384746 117.625 14.8125 C 117.61947 15.240271 117.78058 15.615216 118.125 15.9375 C 118.40268 16.10384 118.86488 16.408514 119.53125 16.875 C 119.96454 17.197643 120.23274 17.523757 120.34375 17.8125 C 120.51042 18.245455 120.51042 18.660113 120.34375 19.09375 C 120.23274 19.382502 119.90823 19.81052 119.375 20.34375 C 118.8639 20.854854 118.28225 21.084979 117.59375 21.0625 C 117.01556 21.04037 116.28356 20.780943 115.40625 20.28125 C 114.41759 19.736608 113.45547 19.004954 112.5 18.09375 C 111.12231 16.78315 109.95512 15.642625 109 14.6875 C 106.89566 12.583157 105.71431 11.004156 105.5 9.9375 L 105.5 9.90625 C 105.50796 8.9420407 105.85727 8.0802544 106.59375 7.34375 C 107.21587 6.7216605 107.76333 6.3408365 108.21875 6.21875 C 108.863 6.2184211 109.53903 6.5520517 110.25 7.21875 C 110.72756 7.8298054 111.40325 8.618117 112.28125 9.5625 C 112.90301 9.9180023 113.35839 9.95413 113.625 9.6875 C 113.72529 9.5872297 113.8265 9.4046438 113.9375 9.09375 C 114.0039 8.9160197 113.86426 8.5915075 113.53125 8.125 C 112.88667 7.6139135 112.06418 6.8636771 111.03125 5.875 C 110.49802 5.2525662 110.35839 4.3916534 110.625 3.28125 C 110.68068 3.0699823 110.96907 2.6696657 111.46875 2.125 C 111.84638 1.7252691 112.11423 1.4749597 112.28125 1.375 C 112.59766 1.1917336 112.92585 1.1340319 113.28125 1.15625 z M 103.5 12 C 104.15604 11.914551 104.74997 12.041486 105.25 12.375 C 105.45022 12.508156 105.70213 12.702154 105.96875 12.96875 C 106.5127 13.535546 106.81021 14.081065 106.84375 14.625 C 106.85447 14.836306 106.51924 15.43062 105.875 16.375 C 105.23076 17.319413 104.91537 17.80862 104.9375 17.875 C 105.03779 18.019562 106.33549 19.047117 108.8125 20.96875 C 109.31253 21.357448 109.77404 21.774054 110.21875 22.21875 C 111.22954 23.229552 111.92381 24.203089 112.3125 25.125 C 112.80146 26.280692 112.72921 27.159496 112.0625 27.78125 C 110.98496 28.792393 109.93952 29.210946 108.90625 29 C 108.12888 28.844391 107.2097 28.250077 106.1875 27.25 C 106.27637 27.338878 105.71102 26.737047 104.5 25.4375 L 102.46875 23.21875 C 101.84665 22.508128 101.32654 21.87017 100.9375 21.28125 C 100.89324 21.369788 100.82099 21.46028 100.6875 21.59375 C 100.30989 21.971382 99.874697 22.30696 99.375 22.5625 C 98.697227 22.906934 98.104861 23.008491 97.59375 22.875 C 96.871716 22.6862 96.306013 22.399763 95.90625 22 C 95.239546 21.333297 95.070957 20.443427 95.4375 19.34375 C 95.904349 17.921809 96.823176 16.551851 98.15625 15.21875 C 98.85617 14.518856 99.631814 13.851941 100.53125 13.21875 C 101.03129 12.985697 101.82155 12.623109 102.84375 12.15625 C 103.07976 12.081215 103.28132 12.028483 103.5 12 z M 91.46875 23.0625 C 91.654826 23.058651 91.842397 23.074344 92.03125 23.09375 C 92.920321 23.182643 93.77177 23.480146 94.59375 23.96875 C 97.548665 25.702296 99.91005 27.441321 101.6875 29.21875 C 102.73183 30.263099 103.63082 31.337848 104.375 32.4375 L 104.375 32.46875 C 104.80829 33.101933 104.82812 33.748664 104.40625 34.4375 C 104.19495 34.781587 103.92515 35.106099 103.625 35.40625 C 103.08069 35.950558 102.50622 36.286136 101.90625 36.375 C 101.34016 36.297201 100.98829 36.211587 100.84375 36.15625 C 100.41045 36.011365 99.986673 35.705435 99.53125 35.25 C 99.064754 35.672238 98.562533 36.21024 98.0625 36.84375 C 98.184567 36.921564 98.371394 37.041358 98.59375 37.21875 C 99.049174 37.674184 99.391577 38.286734 99.625 39.03125 C 99.758131 39.808973 99.497102 40.502898 98.875 41.125 C 98.575183 41.424817 98.149113 41.760395 97.59375 42.09375 L 97.53125 42.09375 C 96.120705 42.57131 94.480253 41.855254 92.625 40 C 92.502933 39.877934 92.245799 39.602563 91.8125 39.125 C 90.15713 37.291887 88.942748 35.753338 88.1875 34.53125 C 87.120696 32.798425 86.45378 30.955203 86.1875 29 C 85.987288 27.489188 86.505797 26.11923 87.75 24.875 C 88.916454 23.708569 90.166219 23.089443 91.46875 23.0625 z M 91.40625 28.25 C 91.250987 28.24967 91.147136 28.398421 91.125 28.6875 C 91.924854 29.776459 92.603181 30.65721 93.125 31.3125 C 94.047268 32.456785 94.603161 33.076507 94.78125 33.1875 C 94.958649 33.254251 95.116519 33.227242 95.25 33.09375 C 95.294264 33.049498 95.386876 32.909692 95.53125 32.6875 C 95.675624 32.465331 95.747707 32.346055 95.78125 32.3125 C 94.959269 31.334918 93.506335 29.971785 91.40625 28.25 z M 81.5 32.46875 C 81.66456 32.466673 81.821524 32.524334 81.96875 32.59375 C 82.21324 32.704774 82.465151 32.871416 82.6875 33.09375 C 83.165063 33.571328 83.368006 34.125792 83.3125 34.78125 C 83.257002 35.436743 82.914426 36.085595 82.28125 36.71875 C 82.125642 36.874379 82.006193 36.984709 81.90625 37.0625 C 81.995127 37.307001 82.207016 37.622394 82.5625 38 C 83.006865 38.488639 83.256829 38.765957 83.3125 38.84375 C 83.500968 38.965833 83.724268 38.936531 83.96875 38.78125 C 84.035494 38.203422 84.292628 37.67614 84.78125 37.1875 C 85.348029 36.620739 86.100213 36.417969 87 36.5625 C 87.210942 36.684931 87.395821 36.842455 87.5625 37.03125 C 88.151407 37.620173 88.390305 38.341453 88.3125 39.21875 C 88.256824 40.029679 87.961614 40.680305 87.40625 41.125 C 87.283834 41.18034 87.127912 41.327144 86.90625 41.59375 C 87.061517 41.704765 87.365845 42.10348 87.84375 42.78125 C 88.110366 43.047876 88.41504 43.131198 88.78125 43.03125 C 89.114951 42.453418 89.49543 42.072939 89.90625 41.90625 C 90.539418 41.628578 91.096003 41.684544 91.5625 42.0625 C 92.095729 42.484394 92.432599 43.109995 92.59375 43.9375 C 92.75489 44.765023 92.724295 45.640241 92.46875 46.5625 C 92.246737 47.384833 91.773474 48.164026 91.0625 48.875 C 90.440391 49.497109 89.764703 49.920886 89.03125 50.1875 C 88.720368 50.298506 88.100647 50.31869 87.15625 50.21875 C 85.945237 49.918593 84.100068 48.546687 81.65625 46.125 C 80.245366 44.736249 78.77385 43.012822 77.21875 40.96875 C 76.318627 39.780226 75.91831 38.797917 76.0625 38.03125 L 78.5625 34.96875 C 78.940475 34.390926 79.347962 33.902064 79.78125 33.46875 C 80.430939 32.819081 81.00632 32.474982 81.5 32.46875 z M 72.9375 43.28125 C 73.247126 43.290973 73.5786 43.299319 73.90625 43.34375 C 76.094861 43.643583 77.872307 44.497325 79.25 45.875 C 80.782957 47.407975 81.839815 49.131402 82.40625 51.03125 C 83.117223 53.364069 82.894268 55.538629 81.75 57.59375 C 80.93908 58.516019 80.049038 59.19188 79.09375 59.625 C 78.138459 60.058125 77.424523 60.107438 76.96875 59.71875 C 73.802895 56.952649 70.857916 54.201667 68.125 51.46875 C 67.114218 50.457969 66.419948 49.696667 66.03125 49.21875 C 65.70897 48.341107 66.301683 47.167094 67.8125 45.65625 C 68.668034 44.800742 69.540013 44.122761 70.40625 43.65625 C 71.172908 43.373049 72.008623 43.25208 72.9375 43.28125 z M 73.59375 48.53125 C 73.248985 48.49772 72.988302 48.574216 72.84375 48.71875 C 72.777014 48.785504 72.711757 48.886889 72.65625 49.03125 C 72.600753 49.175637 72.573571 49.238947 72.5625 49.25 C 73.473358 49.916727 74.852089 51.169184 76.71875 52.96875 C 76.819035 52.42446 76.779322 51.806031 76.5625 51.15625 C 76.345681 50.506491 76.006863 49.975623 75.5625 49.53125 C 74.98466 48.95342 74.337583 48.60907 73.59375 48.53125 z "
       transform="translate(0,28.362168)"
       id="rect2987" />
    <path
       style="opacity:0.43771044999999997;fill:#20ff00;fill-opacity:1;stroke:none"
       d="M 128 0 L 128 64 L 192 64 L 192 0 L 128 0 z M 177.65625 0.75 C 178.01165 0.77221806 178.38686 0.89729747 178.78125 1.125 C 179.02574 1.258157 179.3066 1.3776059 179.5625 1.5 C 180.02899 1.7666378 180.45506 2.1022158 180.84375 2.46875 C 182.46593 3.9574658 183.66012 5.0663947 184.4375 5.84375 C 186.0818 7.4880751 187.58945 9.5809148 189 12.125 C 189.43329 12.913794 189.35191 13.81473 188.71875 14.78125 C 188.31864 15.403363 187.86557 15.743819 187.34375 15.84375 C 186.64383 15.988304 185.93007 15.7966 185.21875 15.21875 C 185.01887 15.063145 184.69777 14.713088 184.28125 14.21875 C 183.86472 13.724429 183.56381 13.416688 183.375 13.25 C 183.03057 13.039068 182.72625 13.055011 182.4375 13.34375 C 182.15982 13.621442 182.00553 13.978496 182 14.40625 C 181.99447 14.834021 182.15558 15.208966 182.5 15.53125 C 182.77768 15.69759 183.27113 16.033514 183.9375 16.5 C 184.37079 16.822643 184.63899 17.117507 184.75 17.40625 C 184.91667 17.839205 184.91667 18.285113 184.75 18.71875 C 184.63899 19.007502 184.31448 19.40427 183.78125 19.9375 C 183.27015 20.448604 182.65725 20.709979 181.96875 20.6875 C 181.39056 20.66537 180.65856 20.374693 179.78125 19.875 C 178.79259 19.330358 177.83047 18.629954 176.875 17.71875 C 175.49731 16.40815 174.33012 15.267625 173.375 14.3125 C 171.25314 12.190642 170.10648 10.598075 169.90625 9.53125 L 169.875 9.53125 C 169.87501 8.554015 170.25549 7.7132864 171 6.96875 C 171.62212 6.3466605 172.16958 5.9658365 172.625 5.84375 C 173.26925 5.8434211 173.94528 6.1770517 174.65625 6.84375 C 175.13381 7.4548054 175.8095 8.243117 176.6875 9.1875 C 177.30926 9.5430023 177.73339 9.57913 178 9.3125 C 178.10029 9.2122297 178.23275 8.9983938 178.34375 8.6875 C 178.41015 8.5097697 178.27051 8.1852575 177.9375 7.71875 C 177.29292 7.2076635 176.43918 6.4574271 175.40625 5.46875 C 174.87302 4.8463162 174.73339 3.9854034 175 2.875 C 175.05568 2.6637323 175.34407 2.2946657 175.84375 1.75 C 176.22138 1.3502691 176.48923 1.0999597 176.65625 1 C 176.97266 0.81673362 177.30085 0.72778194 177.65625 0.75 z M 166.71875 12.15625 C 167.12144 12.164549 167.58265 12.223638 168.09375 12.3125 C 168.53811 12.401392 168.88052 12.558916 169.125 12.78125 C 169.41375 13.047886 169.62793 13.510084 169.75 14.1875 L 169.78125 14.1875 C 169.9258 15.043042 169.79494 15.67383 169.40625 16.0625 C 169.27312 16.195651 169.07035 16.353521 168.78125 16.53125 C 168.33689 16.797882 167.80766 16.696324 167.21875 16.21875 C 166.98568 16.029956 166.70607 16.075202 166.40625 16.375 C 166.25064 16.530629 166.16927 16.706389 166.125 16.90625 C 166.2246 17.250688 166.3714 17.527661 166.59375 17.75 C 166.97138 18.127635 167.48271 18.256202 168.09375 18.15625 C 170.33804 17.778644 171.66957 17.605176 172.125 17.59375 C 173.74683 17.549501 175.01523 17.939098 175.9375 18.75 C 176.1595 18.949889 176.46612 19.197905 176.84375 19.53125 C 178.2989 20.942152 178.56904 22.925007 177.625 25.46875 C 177.26951 26.424565 176.77606 27.192692 176.1875 27.78125 C 176.09862 27.870127 175.99024 27.991523 175.8125 28.125 L 175.75 28.125 C 173.27264 29.913513 171.30802 30.256608 169.875 29.15625 C 169.54164 28.912114 169.32081 28.756364 169.1875 28.65625 C 169.05419 28.556143 169.01789 28.517895 169.0625 28.5625 C 168.76269 28.26269 168.57569 27.931179 168.53125 27.53125 C 168.48682 27.13133 168.5905 26.815763 168.8125 26.59375 C 168.91244 26.493818 169.31279 26.321642 170.0625 26.09375 C 170.81221 25.86587 171.27994 25.657567 171.46875 25.46875 C 171.54656 25.39095 171.66078 25.289738 171.75 25.15625 L 171.78125 25.15625 L 171.78125 25.125 C 172.08106 24.625317 172.10125 24.217138 171.8125 23.90625 C 171.7015 23.795254 171.53827 23.755714 171.34375 23.75 C 171.14923 23.744303 170.55116 23.860339 169.5625 24.09375 C 168.72946 24.282222 168.08043 24.363596 167.625 24.375 C 166.99149 24.386074 166.29986 24.266625 165.5 24 C 164.45602 23.644174 163.5658 23.097053 162.84375 22.375 C 161.79942 21.330675 161.28126 19.987726 161.28125 18.34375 C 161.28126 16.522057 161.88992 14.985111 163.15625 13.71875 C 163.88971 12.985314 164.72327 12.494159 165.65625 12.25 C 165.95053 12.177736 166.31606 12.147951 166.71875 12.15625 z M 157.71875 20.71875 C 158.06454 20.676936 158.42283 20.760242 158.78125 20.96875 L 159.9375 21.84375 C 160.39293 22.299193 160.97847 22.835594 161.65625 23.46875 C 162.33403 24.101936 162.74869 24.529953 162.9375 24.71875 C 165.14824 26.907371 166.98429 29.018101 168.40625 31.0625 C 169.32817 32.384178 169.47462 33.580669 168.875 34.625 C 168.65264 34.89162 168.49512 35.067381 168.40625 35.15625 C 167.28411 36.278394 166.14587 36.388724 164.96875 35.5 C 162.93541 33.977764 161.20321 32.475344 159.78125 31.03125 C 158.28149 29.509364 157.06906 28.076269 156.125 26.6875 L 155.4375 25.125 C 155.18161 23.714124 155.58979 22.472733 156.65625 21.40625 C 156.90074 21.161782 157.14159 20.956719 157.375 20.8125 C 157.48886 20.770748 157.60349 20.732688 157.71875 20.71875 z M 151.15625 27.09375 C 151.79219 27.057613 152.48564 27.252268 153.21875 27.71875 C 153.52998 27.918648 154.11323 28.402977 154.96875 29.125 L 154.96875 29.09375 C 156.36823 30.27124 157.63697 31.449494 158.78125 32.59375 C 162.30294 36.115457 163.70185 38.65031 162.96875 40.25 C 162.85774 40.494494 162.67091 40.735339 162.4375 40.96875 C 162.15981 41.246441 161.7432 41.573246 161.1875 41.90625 C 160.32125 42.150742 157.6806 41.204561 153.28125 39.09375 C 154.33665 39.749409 155.29195 40.510711 156.125 41.34375 C 157.04726 42.266023 157.62856 43.12659 157.90625 43.9375 C 158.03973 44.315126 158.03955 44.750141 157.90625 45.25 C 157.77294 45.749867 157.57263 46.119452 157.25 46.375 C 156.23921 47.20805 155.02253 47.293319 153.65625 46.59375 C 152.7454 46.126914 151.56909 45.162842 150.125 43.71875 C 147.31429 40.908043 145.54596 38.887113 144.8125 37.6875 C 144.26821 36.787724 144.08333 35.787178 144.25 34.6875 C 144.35029 34.053998 144.63833 33.517943 145.09375 33.0625 C 145.3379 32.818377 145.61522 32.604195 145.9375 32.4375 C 146.92617 32.137011 148.60435 32.536072 150.9375 33.625 C 151.88121 34.058311 152.927 34.652971 154.09375 35.375 C 153.24964 34.752909 152.50817 34.196324 151.875 33.71875 C 150.76393 32.874653 149.98703 32.23704 149.53125 31.78125 C 148.98696 31.236969 148.66015 30.613352 148.59375 29.96875 C 148.51595 29.22494 148.79522 28.548561 149.40625 27.9375 C 149.94502 27.398745 150.52031 27.129887 151.15625 27.09375 z M 140.5625 37.90625 C 140.90829 37.864436 141.26658 37.947742 141.625 38.15625 L 142.78125 39 C 143.23668 39.455443 143.79097 40.023094 144.46875 40.65625 C 145.14653 41.289436 145.59244 41.686203 145.78125 41.875 C 147.99199 44.063621 149.79679 46.174351 151.21875 48.21875 C 152.14067 49.540428 152.31837 50.736919 151.71875 51.78125 C 151.49639 52.04787 151.33887 52.223631 151.25 52.3125 C 150.12786 53.434644 148.95837 53.544974 147.78125 52.65625 C 145.74791 51.134014 144.04696 49.662844 142.625 48.21875 C 141.12524 46.696864 139.88156 45.232519 138.9375 43.84375 L 138.28125 42.28125 C 138.02536 40.870374 138.43354 39.628983 139.5 38.5625 C 139.74449 38.318032 139.98534 38.112969 140.21875 37.96875 C 140.33261 37.926998 140.44724 37.920188 140.5625 37.90625 z M 133.84375 44 C 134.84383 43.933625 135.59177 44.154286 136.125 44.6875 C 136.83598 45.398496 137.10648 46.187154 136.90625 47.03125 C 136.90625 47.186879 136.71226 47.583301 136.3125 48.25 C 135.95702 48.871775 135.78843 49.270836 135.84375 49.4375 C 136.09931 49.693065 136.40523 50.138973 136.75 50.75 C 136.86066 50.750013 136.96257 50.693701 137.0625 50.59375 C 137.14031 50.515957 137.2923 50.26046 137.53125 49.84375 C 137.7702 49.427067 137.91342 49.211593 137.96875 49.15625 C 138.58014 48.567702 139.39546 48.418951 140.40625 48.71875 L 140.40625 48.6875 C 140.85061 48.82065 141.19301 49.005529 141.4375 49.25 C 141.71518 49.527697 141.92707 50.018851 142.09375 50.71875 C 142.3825 51.474349 142.29952 52.215467 141.84375 52.9375 C 141.64387 53.137387 141.2178 53.657844 140.5625 54.46875 C 140.75131 54.679701 141.20634 55.067004 141.90625 55.65625 C 142.6729 56.289429 143.09668 56.659187 143.21875 56.78125 C 144.40728 57.969793 144.56515 58.997348 143.6875 59.875 C 143.33201 60.230492 142.65792 60.656563 141.625 61.15625 C 140.19198 61.145187 138.70745 60.480219 137.21875 59.125 L 131.28125 53.75 C 130.90364 53.305995 130.33988 52.647852 129.5625 51.78125 C 128.98467 50.959281 128.81608 50.132548 129.09375 49.34375 C 129.29364 48.410779 130.1565 47.218529 131.65625 45.71875 C 132.46717 44.907852 133.19952 44.333723 133.84375 44 z "
       transform="translate(0,28.362168)"
       id="rect2989" />
    <path
       style="opacity:1;fill:#d680ff;fill-opacity:0.43921778;stroke:none"
       d="m 256,28.362168 0,64 64,0 0,-64 -64,0 z m 25.34375,21.78125 0,21 -10.5,-10.5 10.5,-10.5 z m 3.53125,6.96875 24.03125,0 0,8.46875 -24.03125,0 0,-8.46875 z"
       id="rect2991"
       inkscape:connector-curvature="0" />
    <path
       style="opacity:1;fill:#d680ff;fill-opacity:0.43921568999999999;stroke:none"
       d="m 320,28.362168 0,64 64,0 0,-64 -64,0 z m 42.40625,21.78125 10.5,10.5 -10.5,10.5 0,-21 z m -27.5625,6.96875 24.03125,0 0,8.46875 -24.03125,0 0,-8.46875 z"
       id="rect2992"
       inkscape:connector-curvature="0" />
    <rect
       style="opacity:0.43771045;fill:#ffe680;fill-opacity:1;stroke:none"
       id="rect3009"
       width="1.4142135"
       height="0.70710677"
       x="214.6069"
       y="39.707352"
       transform="translate(0,28.362168)" />
    <path
       style="opacity:0.43771045;fill:#2effaf;fill-opacity:1;stroke:none"
       d="m 192,28.362168 0,64.000002 64,0 0,-64.000002 -64,0 z m 36.53125,17.000002 c 0.53948,-0.0396 1.1008,-0.0173 1.65625,0.0937 l 0.0312,0 0,0.0312 c 1.49976,0.32196 2.70079,0.9508 3.65625,1.90625 1.03327,1.03329 1.68424,2.3287 1.90625,3.90625 0.18881,1.32168 -0.53442,3.09036 -2.15625,5.3125 0.18881,0.23308 0.56051,0.569 1.09375,0.96875 0.58891,0.41117 0.90201,0.65202 0.96875,0.71875 0.39975,0.39976 0.72461,0.93616 0.96875,1.625 0.12241,0.34443 0.0693,0.77568 -0.125,1.28125 -0.19435,0.50557 -0.50421,0.97296 -0.9375,1.40625 -0.64424,0.64424 -1.32922,0.96663 -2.0625,1 -0.73328,0.0334 -1.4072,-0.22359 -2.0625,-0.8125 -1.34449,-0.83339 -2.62396,-1.85183 -3.8125,-3.0625 l -3.5625,-3.59375 c -0.0999,-0.0999 -0.47881,-0.51459 -1.15625,-1.28125 -0.61138,-0.6999 -1.07712,-1.37788 -1.34375,-2 -0.34407,-0.8109 -0.35318,-1.48659 -0.0312,-2.03125 0.74453,-1.25492 1.53284,-2.28282 2.34375,-3.09375 1.4747,-1.47468 3.00656,-2.25627 4.625,-2.375 z m -0.125,4.9375 c -0.37494,0.0305 -0.77992,0.22167 -1.21875,0.59375 0.41082,0.52218 0.75552,0.91178 1,1.15625 0.34443,0.34443 0.60351,0.5944 0.78125,0.75 0.27769,0.23343 0.66534,0.57618 1.1875,1.03125 0.0111,-0.1888 0.0111,-0.45895 0,-0.78125 0,-0.57749 -0.0651,-1.03056 -0.1875,-1.375 l 0.0312,0 c -0.13313,-0.40009 -0.31836,-0.7246 -0.5625,-0.96875 -0.31105,-0.31105 -0.65631,-0.43677 -1.03125,-0.40625 z m -9.65625,4.875 c 0.50553,0.008 0.99997,0.10581 1.5,0.25 0.59963,0.17776 1.16728,0.50193 1.65625,0.96875 0.46649,0.44438 0.7617,0.95182 0.90625,1.5625 0.19988,0.82234 0.0899,1.51821 -0.34375,2.0625 -0.69957,0.85519 -1.7473,1.20901 -3.125,1.03125 -0.0443,-0.0221 -0.20178,-0.14386 -0.46875,-0.34375 -0.19987,-0.1556 -0.36721,-0.1556 -0.5,0 l 0.125,0.46875 c 2.24394,2.46596 3.41308,3.72558 3.46875,3.78125 0.32229,0.3223 0.63539,0.61751 0.96875,0.90625 0.33336,0.28876 0.68717,0.36296 1.03125,0.21875 0.24448,-0.26661 0.39665,-0.97306 0.46875,-2.15625 0.0721,-1.18317 0.23533,-1.89157 0.46875,-2.125 0.17774,-0.17773 0.38963,-0.32648 0.65625,-0.4375 0.82198,-0.44435 1.61941,-0.28682 2.375,0.46875 0.0557,0.0557 0.15006,0.15007 0.25,0.25 0.12206,0.1 0.20573,0.1745 0.25,0.21875 1.62217,1.62219 2.09314,3.31437 1.4375,5.125 -0.36622,1.0108 -0.92997,1.92997 -1.71875,2.71875 -1.05541,1.0554 -2.21313,1.6097 -3.46875,1.6875 -2.63262,0.16633 -5.05944,-0.88106 -7.28125,-3.125 -0.97759,-0.97759 -1.98885,-2.21021 -3,-3.6875 -0.77771,-1.1332 -1.27798,-2.38141 -1.5,-3.78125 -0.11099,-0.68849 -0.0187,-1.44996 0.28125,-2.25 0.3,-0.80001 0.77309,-1.49181 1.40625,-2.125 0.73312,-0.73309 1.60298,-1.2446 2.625,-1.5 0.51102,-0.12768 1.02572,-0.19576 1.53125,-0.1875 z"
       id="rect3027"
       inkscape:connector-curvature="0" />
    <text
       transform="matrix(0.70710678,-0.70710678,0.70710678,0.70710678,0,0)"
       sodipodi:linespacing="125%"
       id="text3775"
       y="188.86761"
       x="188.62241"
       style="font-size:24.03750229px;font-style:normal;font-variant:normal;font-weight:normal;font-stretch:normal;line-height:125%;letter-spacing:0px;word-spacing:0px;fill:#000000;fill-opacity:1;stroke:none;font-family:BubbleGum;-inkscape-font-specification:BubbleGum"
       xml:space="preserve"><tspan
         y="188.86761"
         x="188.62241"
         id="tspan3777"
         sodipodi:role="line">CP</tspan></text>
    <path
       style="fill:#d680ff;fill-opacity:0.43921569;stroke:none"
       d="M 384 0 L 384 64 L 448 64 L 448 0 L 384 0 z M 430.40625 8.09375 C 430.94573 8.0541743 431.50705 8.0764148 432.0625 8.1875 L 432.0625 8.21875 C 433.56226 8.5407157 434.79454 9.1695558 435.75 10.125 C 436.78327 11.158287 437.43424 12.453697 437.65625 14.03125 C 437.84506 15.352935 437.12183 17.121609 435.5 19.34375 C 435.68881 19.576832 436.02926 19.912756 436.5625 20.3125 C 437.15141 20.723672 437.49576 20.964517 437.5625 21.03125 C 437.96225 21.431009 438.28711 21.96741 438.53125 22.65625 C 438.65366 23.000679 438.60059 23.431936 438.40625 23.9375 C 438.2119 24.443073 437.90204 24.910458 437.46875 25.34375 C 436.82451 25.98799 436.13953 26.310382 435.40625 26.34375 C 434.67297 26.377122 433.9678 26.120161 433.3125 25.53125 C 431.96801 24.69786 430.71979 23.679423 429.53125 22.46875 L 425.96875 18.875 C 425.86882 18.775071 425.45869 18.360413 424.78125 17.59375 C 424.16987 16.893849 423.73538 16.215868 423.46875 15.59375 C 423.12468 14.782847 423.11557 14.107159 423.4375 13.5625 C 424.18203 12.307584 424.97034 11.279683 425.78125 10.46875 C 427.25595 8.9940731 428.78781 8.2124772 430.40625 8.09375 z M 430.28125 13.03125 C 429.90631 13.061767 429.50133 13.25292 429.0625 13.625 C 429.47332 14.147182 429.78677 14.536779 430.03125 14.78125 C 430.37568 15.125686 430.63476 15.37565 430.8125 15.53125 C 431.09019 15.764682 431.50909 16.107431 432.03125 16.5625 C 432.04232 16.373702 432.04232 16.103554 432.03125 15.78125 C 432.03125 15.203766 431.96617 14.750687 431.84375 14.40625 L 431.875 14.40625 C 431.74187 14.006166 431.55664 13.681654 431.3125 13.4375 C 431.00145 13.126455 430.65619 13.000733 430.28125 13.03125 z M 420.0625 17.40625 C 420.87342 17.373423 421.65978 17.586913 422.4375 18.03125 C 422.95967 18.330742 423.69201 18.914682 424.625 19.78125 C 425.45839 20.592533 426.29195 21.407854 427.125 22.21875 C 428.99166 23.996213 430.51914 25.487913 431.71875 26.6875 L 431.75 26.6875 C 432.32783 27.265357 432.66146 27.850898 432.75 28.40625 C 432.81673 28.850624 432.722 29.247392 432.5 29.625 C 432.38899 29.825234 432.23375 30.133457 432 30.5 C 431.82259 30.788759 431.69173 30.96452 431.625 31.03125 C 431.14743 31.508819 430.54236 31.688165 429.78125 31.59375 C 429.02012 31.499355 428.32066 31.133182 427.6875 30.5 C 427.44301 30.255526 426.92255 29.63615 426.15625 28.625 C 425.56768 27.836575 425.05147 27.27999 424.5625 26.96875 C 424.6735 27.191118 425.00679 27.866806 425.5625 29 C 426.251 30.444445 426.53549 31.435872 426.46875 31.96875 C 426.43555 32.268919 426.32682 32.548185 426.09375 32.78125 C 425.916 32.959003 425.65532 33.058268 425.34375 33.125 C 424.12201 33.102531 422.46562 32.361413 420.34375 30.90625 C 420.56576 31.239618 420.805 31.555012 421.09375 31.84375 C 421.26043 32.010438 421.8349 32.512659 422.8125 33.3125 C 423.51276 33.879284 424.03287 34.368146 424.34375 34.8125 C 424.7435 35.390003 424.91697 36.077102 424.90625 36.84375 C 424.73922 37.454794 424.48049 37.925765 424.125 38.28125 C 423.63637 38.769877 422.96946 38.990884 422.125 38.96875 C 420.89185 38.646461 420.11426 38.396152 419.78125 38.21875 C 419.11454 37.885396 418.28098 37.249731 417.28125 36.25 C 416.35899 35.32774 414.81327 33.593247 412.625 31.09375 C 411.86977 30.22717 411.41457 29.292228 411.28125 28.28125 C 411.14795 27.270299 411.34212 26.299229 411.875 25.34375 C 413.30838 23.821873 415.70784 23.959213 419.0625 25.78125 C 418.64062 25.248033 418.18754 24.45255 417.6875 23.375 C 416.95439 21.79745 416.72232 20.601306 417 19.8125 C 417.36656 19.134742 417.7272 18.616578 418.09375 18.25 C 418.70479 17.638984 419.36259 17.350945 420.0625 17.40625 z M 407.1875 30.375 C 407.94309 30.330759 408.70962 30.497401 409.53125 30.875 L 409.53125 30.84375 C 410.09768 31.321676 410.69951 31.887033 411.34375 32.53125 C 413.88784 35.075366 415.86318 37.835121 417.21875 40.8125 C 417.57423 41.589884 417.7391 42.432733 417.75 43.34375 C 417.76089 44.254786 417.59407 45.023086 417.25 45.65625 C 416.86131 46.178424 416.46454 46.66046 416.03125 47.09375 C 414.7981 48.3269 413.47373 49.056953 412.0625 49.3125 C 410.71835 49.568054 409.38417 49.365284 408.0625 48.6875 C 407.06243 48.176402 405.89559 47.270589 404.5625 45.9375 C 402.56305 43.938056 401.10066 42.065531 400.15625 40.34375 C 399.86751 39.810183 399.76042 39.16509 399.84375 38.4375 C 399.9271 37.709938 400.13346 37.143289 400.5 36.6875 C 400.8223 36.29883 401.27716 36.008325 401.84375 35.875 C 402.41036 35.741709 402.958 35.790677 403.46875 35.96875 C 403.76892 36.20184 404.07519 36.450202 404.375 36.75 C 404.74156 37.11657 405.40653 38.00644 406.40625 39.40625 C 407.40598 40.806087 408.09308 41.686838 408.4375 42.03125 C 408.77086 42.364618 409.07484 42.632818 409.375 42.84375 C 409.63055 42.965829 410.01138 42.954764 410.5 42.84375 C 410.91082 42.521468 411.13377 42.226259 411.15625 41.9375 C 411.13377 41.337537 410.88151 40.765009 410.4375 40.1875 C 409.65978 39.431926 408.69571 38.440499 407.5625 37.21875 C 406.71804 36.152299 406.22006 35.474664 406.03125 35.21875 C 405.48696 34.496724 405.1172 33.92385 404.90625 33.46875 C 404.66177 32.424089 404.79068 31.655961 405.3125 31.15625 C 405.80147 30.689433 406.43192 30.419285 407.1875 30.375 z M 396.15625 41.53125 C 396.28822 41.515989 396.42634 41.511803 396.5625 41.53125 C 397.36235 41.642273 399.42853 43.131681 402.75 46.03125 L 402.71875 46.0625 C 403.0075 46.351263 403.49329 46.807755 404.1875 47.46875 C 404.8817 48.129772 405.2949 48.513663 405.40625 48.625 C 406.17255 49.391319 406.72879 50.096655 407.0625 50.71875 C 407.47331 51.485067 407.7145 52.375282 407.78125 53.375 C 407.72557 54.297273 407.1781 55.259398 406.15625 56.28125 C 405.70047 56.737027 405.20966 57.164699 404.6875 57.53125 C 403.09921 58.653395 401.5079 58.752659 399.875 57.875 C 399.15261 57.485971 398.59443 57.125677 398.25 56.78125 C 397.83919 56.370437 397.6273 55.851927 397.59375 55.21875 C 397.57162 54.863267 397.61652 54.250716 397.75 53.40625 C 397.82746 52.906222 397.96744 52.563819 398.15625 52.375 C 398.34506 52.186199 398.59503 52.179028 398.90625 52.3125 C 398.95052 52.33464 399.32222 52.517572 400 52.90625 C 400.5443 53.22855 400.9339 53.284861 401.15625 53.0625 C 401.42287 52.795891 401.40268 52.387712 401.125 51.84375 C 400.25841 50.887951 399.13647 49.896869 397.78125 48.875 L 394.59375 46.46875 C 393.8603 45.73531 393.58138 44.901752 393.78125 43.96875 C 394.3259 43.024371 394.74251 42.413767 395.03125 42.125 C 395.38942 41.766846 395.76035 41.577033 396.15625 41.53125 z "
       id="rect3002"
       transform="translate(0,28.362168)" />
  </g>
</svg>
